<svg preserveAspectRatio="none" overflow="visible" style="display: block;" width="259.084" height="166.004" viewBox="0 0 259.084 166.004" fill="none" xmlns="http://www.w3.org/2000/svg">
<g id="Lid">
<path id="Vector" d="M131.446 165.48L0.523892 89.9669V73.8378L131.446 149.351V165.48Z" fill="white" stroke="#191919" stroke-width="1.04774" stroke-linecap="round" stroke-linejoin="round"/>
<path id="Vector_2" d="M131.447 165.479L258.56 92.1654V76.0364L131.447 149.35V165.479Z" fill="#C9C9C9" stroke="#191919" stroke-width="1.04774" stroke-linecap="round" stroke-linejoin="round"/>
<path id="Vector_3" d="M131.446 149.351L0.523871 73.8377L127.63 0.523871L258.56 76.0371L131.446 149.351Z" fill="white" stroke="#191919" stroke-width="1.04774" stroke-linecap="round" stroke-linejoin="round"/>
<path id="Vector_4" d="M131.446 127.357L38.6555 73.8375L127.63 22.5178L220.421 76.0369L131.446 127.357Z" fill="#F7F7F7" stroke="#191919" stroke-width="1.04774" stroke-linecap="round" stroke-linejoin="round"/>
<path id="Vector_5" d="M129.538 108.662L71.0709 74.9375L129.538 41.2131L188.013 74.9375L129.538 108.662Z" fill="#E0E0E0" stroke="#191919" stroke-width="1.04774" stroke-linecap="round" stroke-linejoin="round"/>
<path id="Vector_6" d="M129.539 97.6649L90.137 74.9377L129.539 52.2104L168.947 74.9377L129.539 97.6649Z" fill="white" stroke="#191919" stroke-width="1.04774" stroke-linecap="round" stroke-linejoin="round"/>
<path id="Vector_7" d="M96.4922 74.9373L129.538 55.8757L162.592 74.9373" stroke="#191919" stroke-width="1.04774" stroke-linecap="round" stroke-linejoin="round"/>
</g>
</svg>
