<svg preserveAspectRatio="none" overflow="visible" style="display: block;" width="21.25" height="21.25" viewBox="0 0 21.25 21.25" fill="none" xmlns="http://www.w3.org/2000/svg">
<g id="Shoulder joint">
<path id="Shoulder joint disc" d="M10.625 20.625C16.1478 20.625 20.625 16.1478 20.625 10.625C20.625 5.10215 16.1478 0.625 10.625 0.625C5.10215 0.625 0.625 5.10215 0.625 10.625C0.625 16.1478 5.10215 20.625 10.625 20.625Z" fill="#141414" stroke="white" stroke-width="1.25" stroke-linecap="round" stroke-linejoin="round"/>
<path id="Shoulder joint ring" d="M10.625 16.125C13.6626 16.125 16.125 13.6626 16.125 10.625C16.125 7.58743 13.6626 5.125 10.625 5.125C7.58743 5.125 5.125 7.58743 5.125 10.625C5.125 13.6626 7.58743 16.125 10.625 16.125Z" fill="black" stroke="white" stroke-width="1.25" stroke-linecap="round" stroke-linejoin="round"/>
<path id="Shoulder joint pin" d="M10.625 12.2254C11.5087 12.2254 12.225 11.509 12.225 10.6254C12.225 9.74173 11.5087 9.02539 10.625 9.02539C9.74137 9.02539 9.02502 9.74173 9.02502 10.6254C9.02502 11.509 9.74137 12.2254 10.625 12.2254Z" fill="white"/>
</g>
</svg>
